<mxfile host="app.diagrams.net" modified="2023-05-15T06:49:17.858Z" agent="Mozilla/5.0 (Windows NT 10.0; Win64; x64) AppleWebKit/537.36 (KHTML, like Gecko) Chrome/111.0.0.0 Safari/537.36" etag="mCFW74EBw-n_O4nU5yF0" version="21.2.9" type="github">
  <diagram name="第 1 页" id="7QWDXaurPXuAZQvi9xqq">
    <mxGraphModel dx="1050" dy="541" grid="0" gridSize="10" guides="1" tooltips="1" connect="1" arrows="1" fold="1" page="1" pageScale="1" pageWidth="827" pageHeight="1169" math="0" shadow="0">
      <root>
        <mxCell id="0" />
        <mxCell id="1" parent="0" />
        <mxCell id="fzTHP8AQGk2SsxXc35qt-4" value="" style="edgeStyle=orthogonalEdgeStyle;rounded=0;orthogonalLoop=1;jettySize=auto;html=1;" parent="1" source="fzTHP8AQGk2SsxXc35qt-1" target="fzTHP8AQGk2SsxXc35qt-3" edge="1">
          <mxGeometry relative="1" as="geometry" />
        </mxCell>
        <mxCell id="fzTHP8AQGk2SsxXc35qt-1" value="开始" style="rounded=1;whiteSpace=wrap;html=1;" parent="1" vertex="1">
          <mxGeometry x="314" y="79" width="77" height="33" as="geometry" />
        </mxCell>
        <mxCell id="fzTHP8AQGk2SsxXc35qt-6" value="" style="edgeStyle=orthogonalEdgeStyle;rounded=0;orthogonalLoop=1;jettySize=auto;html=1;" parent="1" source="fzTHP8AQGk2SsxXc35qt-3" edge="1">
          <mxGeometry relative="1" as="geometry">
            <mxPoint x="352.55172413793116" y="219" as="targetPoint" />
          </mxGeometry>
        </mxCell>
        <mxCell id="fzTHP8AQGk2SsxXc35qt-3" value="获取飞行高度" style="rounded=1;whiteSpace=wrap;html=1;" parent="1" vertex="1">
          <mxGeometry x="304.75" y="149" width="95.5" height="35" as="geometry" />
        </mxCell>
        <mxCell id="fzTHP8AQGk2SsxXc35qt-9" style="edgeStyle=orthogonalEdgeStyle;rounded=0;orthogonalLoop=1;jettySize=auto;html=1;entryX=1;entryY=0.5;entryDx=0;entryDy=0;exitX=1;exitY=0.5;exitDx=0;exitDy=0;" parent="1" source="fzTHP8AQGk2SsxXc35qt-13" target="fzTHP8AQGk2SsxXc35qt-3" edge="1">
          <mxGeometry relative="1" as="geometry">
            <mxPoint x="398.92999999999984" y="239" as="sourcePoint" />
            <Array as="points">
              <mxPoint x="444" y="320" />
              <mxPoint x="444" y="167" />
            </Array>
          </mxGeometry>
        </mxCell>
        <mxCell id="fzTHP8AQGk2SsxXc35qt-19" value="" style="edgeStyle=orthogonalEdgeStyle;rounded=0;orthogonalLoop=1;jettySize=auto;html=1;" parent="1" source="fzTHP8AQGk2SsxXc35qt-11" target="fzTHP8AQGk2SsxXc35qt-18" edge="1">
          <mxGeometry relative="1" as="geometry" />
        </mxCell>
        <mxCell id="fzTHP8AQGk2SsxXc35qt-11" value="PID控制" style="whiteSpace=wrap;html=1;rounded=1;" parent="1" vertex="1">
          <mxGeometry x="304.76" y="393" width="92.87" height="40" as="geometry" />
        </mxCell>
        <mxCell id="fzTHP8AQGk2SsxXc35qt-14" value="" style="edgeStyle=orthogonalEdgeStyle;rounded=0;orthogonalLoop=1;jettySize=auto;html=1;" parent="1" source="fzTHP8AQGk2SsxXc35qt-12" target="fzTHP8AQGk2SsxXc35qt-13" edge="1">
          <mxGeometry relative="1" as="geometry" />
        </mxCell>
        <mxCell id="fzTHP8AQGk2SsxXc35qt-12" value="计算飞行高度误差" style="whiteSpace=wrap;html=1;rounded=1;" parent="1" vertex="1">
          <mxGeometry x="304.75" y="222" width="92.87" height="40" as="geometry" />
        </mxCell>
        <mxCell id="fzTHP8AQGk2SsxXc35qt-15" value="" style="edgeStyle=orthogonalEdgeStyle;rounded=0;orthogonalLoop=1;jettySize=auto;html=1;" parent="1" source="fzTHP8AQGk2SsxXc35qt-13" target="fzTHP8AQGk2SsxXc35qt-11" edge="1">
          <mxGeometry relative="1" as="geometry" />
        </mxCell>
        <mxCell id="fzTHP8AQGk2SsxXc35qt-13" value="| E(k) | &amp;lt; K" style="rhombus;whiteSpace=wrap;html=1;" parent="1" vertex="1">
          <mxGeometry x="290.19" y="288" width="122" height="64" as="geometry" />
        </mxCell>
        <mxCell id="fzTHP8AQGk2SsxXc35qt-16" value="是" style="text;html=1;align=center;verticalAlign=middle;resizable=0;points=[];autosize=1;strokeColor=none;fillColor=none;" parent="1" vertex="1">
          <mxGeometry x="400.25" y="296" width="30" height="26" as="geometry" />
        </mxCell>
        <mxCell id="fzTHP8AQGk2SsxXc35qt-17" value="否" style="text;html=1;align=center;verticalAlign=middle;resizable=0;points=[];autosize=1;strokeColor=none;fillColor=none;" parent="1" vertex="1">
          <mxGeometry x="347" y="344" width="30" height="26" as="geometry" />
        </mxCell>
        <mxCell id="fzTHP8AQGk2SsxXc35qt-20" style="edgeStyle=orthogonalEdgeStyle;rounded=0;orthogonalLoop=1;jettySize=auto;html=1;entryX=0;entryY=0.5;entryDx=0;entryDy=0;exitX=0;exitY=0.5;exitDx=0;exitDy=0;" parent="1" source="GeijuaTvU9C3DQZ27EpS-1" target="fzTHP8AQGk2SsxXc35qt-3" edge="1">
          <mxGeometry relative="1" as="geometry">
            <Array as="points">
              <mxPoint x="234" y="577" />
              <mxPoint x="234" y="167" />
            </Array>
          </mxGeometry>
        </mxCell>
        <mxCell id="GeijuaTvU9C3DQZ27EpS-2" value="" style="edgeStyle=orthogonalEdgeStyle;rounded=0;orthogonalLoop=1;jettySize=auto;html=1;" edge="1" parent="1" source="fzTHP8AQGk2SsxXc35qt-18" target="GeijuaTvU9C3DQZ27EpS-1">
          <mxGeometry relative="1" as="geometry" />
        </mxCell>
        <mxCell id="fzTHP8AQGk2SsxXc35qt-18" value="电机控制" style="whiteSpace=wrap;html=1;rounded=1;" parent="1" vertex="1">
          <mxGeometry x="305.06" y="460" width="92.87" height="40" as="geometry" />
        </mxCell>
        <mxCell id="GeijuaTvU9C3DQZ27EpS-5" value="" style="edgeStyle=orthogonalEdgeStyle;rounded=0;orthogonalLoop=1;jettySize=auto;html=1;" edge="1" parent="1" source="GeijuaTvU9C3DQZ27EpS-1">
          <mxGeometry relative="1" as="geometry">
            <mxPoint x="351.20000000000005" y="667" as="targetPoint" />
          </mxGeometry>
        </mxCell>
        <mxCell id="GeijuaTvU9C3DQZ27EpS-1" value="是否处于飞行状态" style="rhombus;whiteSpace=wrap;html=1;" vertex="1" parent="1">
          <mxGeometry x="292.44" y="535" width="117.5" height="84" as="geometry" />
        </mxCell>
        <mxCell id="GeijuaTvU9C3DQZ27EpS-3" value="是" style="text;html=1;align=center;verticalAlign=middle;resizable=0;points=[];autosize=1;strokeColor=none;fillColor=none;" vertex="1" parent="1">
          <mxGeometry x="262.44" y="552" width="30" height="26" as="geometry" />
        </mxCell>
        <mxCell id="GeijuaTvU9C3DQZ27EpS-6" value="否" style="text;html=1;align=center;verticalAlign=middle;resizable=0;points=[];autosize=1;strokeColor=none;fillColor=none;" vertex="1" parent="1">
          <mxGeometry x="349" y="625" width="30" height="26" as="geometry" />
        </mxCell>
        <mxCell id="GeijuaTvU9C3DQZ27EpS-7" value="结束" style="rounded=1;whiteSpace=wrap;html=1;" vertex="1" parent="1">
          <mxGeometry x="312.68" y="667" width="77" height="33" as="geometry" />
        </mxCell>
      </root>
    </mxGraphModel>
  </diagram>
</mxfile>
